<?xml version="1.0" encoding="utf-8"?>
<!-- Generator: Adobe Illustrator 18.0.0, SVG Export Plug-In . SVG Version: 6.00 Build 0)  -->
<!DOCTYPE svg PUBLIC "-//W3C//DTD SVG 1.1//EN" "http://www.w3.org/Graphics/SVG/1.1/DTD/svg11.dtd">
<svg version="1.1" id="Layer_1" xmlns="http://www.w3.org/2000/svg" xmlns:xlink="http://www.w3.org/1999/xlink" x="0px" y="0px"
	 viewBox="1215.9 0 1686.2 841.9" enable-background="new 1215.9 0 1686.2 841.9" xml:space="preserve">
<g>
	<line fill-rule="evenodd" clip-rule="evenodd" fill="#A0A1A7" x1="772.2" y1="169.9" x2="772.2" y2="473.8"/>
	<line fill-rule="evenodd" clip-rule="evenodd" fill="#A0A1A7" x1="911.1" y1="321.8" x2="633.2" y2="321.8"/>
	<line fill-rule="evenodd" clip-rule="evenodd" fill="#A0A1A7" x1="664.7" y1="214.4" x2="879.6" y2="429.3"/>
	<line fill-rule="evenodd" clip-rule="evenodd" fill="#A0A1A7" x1="870.4" y1="223.6" x2="673.9" y2="420.1"/>
	<polyline fill-rule="evenodd" clip-rule="evenodd" fill="#A0A1A7" points="680.8,181.9 675.6,226.9 633.6,230.1 	"/>
	<polyline fill-rule="evenodd" clip-rule="evenodd" fill="#A0A1A7" points="737,159.3 771.8,188.3 805.9,159.9 	"/>
	<polyline fill-rule="evenodd" clip-rule="evenodd" fill="#A0A1A7" points="862.7,184.3 865.5,228.4 910,232.8 	"/>
	<polyline fill-rule="evenodd" clip-rule="evenodd" fill="#A0A1A7" points="861.4,461.3 865.3,416.6 909.7,412.5 	"/>
	<polyline fill-rule="evenodd" clip-rule="evenodd" fill="#A0A1A7" points="630,412.5 675.9,418.1 680.5,461.3 	"/>
	<g>
		<path fill="#A0A1A7" d="M957.2,336.7c-1.5,1.7-3.9,2.6-7.2,2.6h-38.4v-5.1H950c1.2,0,2.3-0.4,3.2-1.1c0.6-0.6,0.8-1.4,0.8-2.3
			v-7.6c-1.1,0.3-2.4,0.6-3.9,0.9l-2.5,0.2l-2.7,0.1H935c-2.5,0-4.9,0.7-7.1,2.1c-2.1,1.3-3.2,2.4-3.3,3.1v3.6h-5.1v-34.5
			c0-0.6-0.2-1-0.5-1.4c-0.3-0.3-0.7-0.5-1.1-0.5c-0.8,0-1.5,0.2-2.2,0.7c0-1.3,0.4-2.4,1.3-3.3c0.9-0.9,1.9-1.4,3-1.4h0.3l2.5-4.8
			l1.7-2.5v37.4c0.7-0.6,1.4-1.1,2.2-1.5c0.8-0.4,1.7-0.8,2.8-1.1c0.6-0.2,1.2-0.3,1.9-0.5c0.2,0,0.7-0.1,1.3-0.3
			c0.6-0.1,1.2-0.1,1.8-0.2c0.6,0,1.3-0.1,2.1-0.1h10.1c1.2,0,2.1-0.1,2.9-0.2c0.8-0.1,1.4-0.2,1.8-0.3c0.4-0.1,0.9-0.3,1.5-0.5
			c1.8-0.7,3.4-1.6,4.7-2.5l1.6-1.3v16.4C959.2,333.2,958.5,335.1,957.2,336.7z M920.6,346.9c-0.8,0.8-1.6,1.5-2.6,2.2
			c-0.5,0.3-1,0.6-1.4,0.9c-0.5,0.3-1,0.5-1.6,0.7l0.9-1.5l1.1-1.9l0.9-1.9l0.8-2.7c0.1-0.4,0.2-0.8,0.2-1.2c0-0.4,0.1-0.8,0.1-1.3
			h4.9c0,1.1-0.3,2.2-0.8,3.3C922.5,344.7,921.7,345.8,920.6,346.9z"/>
		<path fill="#A0A1A7" d="M983.7,351.5c-1.9,2.4-4,4.2-6.5,5.3l-3,1.3l-2.6,0.9c-1.4,0.4-2.8,0.7-4,0.7l1.5-1.1l1.3-0.9l2.8-1.7
			l1.6-1.1c0.5-0.4,1-0.8,1.5-1.3c1-0.8,2.3-2.4,3.7-4.7c1.5-2.3,2.2-5.6,2.2-9.9V322c-2.2,0.4-3.8,0.9-4.7,1.4
			c-1,0.4-1.9,0.9-2.7,1.4c-0.5,0.4-1.3,1-2.4,2c-0.9,0.8-1.5,1.9-2,3.3c-0.5,1.4-0.7,2.8-0.7,4.2h11.3v5.1h-16.5v-4
			c0-2,0.4-4.2,1.1-6.5c0.7-2.3,2-4.3,3.7-5.9c1.8-1.6,4-2.9,6.8-3.9l5.8-2l1.5-0.7l1.2-0.7l1.2-1.1l1.3-1.1v25.5
			C987.5,343.9,986.2,348.1,983.7,351.5z M988.6,339.3v-5.1h4.8v5.1H988.6z"/>
		<path fill="#A0A1A7" d="M990,339.3v-5.1h10.2v-10.6c0-0.5-0.2-1-0.6-1.4c-0.2-0.3-0.6-0.5-1-0.6c-0.4,0-0.9,0.1-1.3,0.2l-0.9,0.4
			c0-1.1,0.4-2.2,1.3-3.3c0.4-0.4,0.9-0.7,1.4-1.1c0.6-0.2,1.1-0.4,1.6-0.4h0.3l4.2-6.3v23h5.4v5.1H990z M998.5,349.6
			c-0.8,0.6-1.6,0.9-2.4,0.9c-0.5,0-0.9-0.1-1.3-0.2c-0.3-0.1-0.7-0.4-1.2-0.8c-0.7-0.6-1-1.4-1-2.4c0-1,0.3-1.8,1-2.5
			c0.8-0.6,1.7-0.9,2.5-0.9c0.5,0,0.9,0.1,1.2,0.2c0.4,0.1,0.7,0.4,1.1,0.8c0.7,0.7,1.1,1.5,1.1,2.5
			C999.4,348,999.1,348.8,998.5,349.6z M1006.1,349.6c-0.8,0.6-1.6,0.9-2.4,0.9c-0.5,0-0.9-0.1-1.3-0.2c-0.3-0.1-0.7-0.4-1.2-0.8
			c-0.7-0.6-1-1.4-1-2.4c0-1,0.3-1.8,1-2.5c0.8-0.6,1.7-0.9,2.5-0.9c0.5,0,0.9,0.1,1.2,0.2c0.4,0.1,0.7,0.4,1.1,0.8
			c0.7,0.7,1.1,1.5,1.1,2.5C1007.1,348,1006.8,348.8,1006.1,349.6z"/>
		<path fill="#A0A1A7" d="M1050.6,335.5c-0.3,0.2-0.8,0.5-1.3,0.8c-0.2,0.1-0.6,0.3-1,0.5c-0.7,0.4-1.7,0.8-2.9,1.3
			c-2,0.8-4.3,1.1-6.8,1.1h-30.1v-5.1h13.9c-1.6-0.9-3-2.1-4.2-3.4l-1.7-1.9l-1.2-1.7l-1.2-2.3l-1.5-3.3c-0.2-0.6-0.4-1.2-0.6-1.9
			c-0.2-0.7-0.4-1.5-0.5-2.4c-0.1-0.8-0.2-1.8-0.3-2.8c-0.1-1-0.1-2.1-0.1-3.3v-12.7l2.5,3.2l1.9,3.6h0.3c1.1,0,2.1,0.4,3,1.3
			c0.9,0.9,1.3,2,1.3,3.3l-0.8-0.3l-1.3-0.3c-0.6,0-1.1,0.2-1.6,0.6c-0.4,0.3-0.7,0.8-0.8,1.6v0.7c0,7,2.7,12.5,8,16.3
			c2.6,1.9,5.5,3.3,8.7,4.3c3.1,1,6.4,1.5,9.9,1.5h10.2L1050.6,335.5z M1032,319.7c-0.7,0.7-1.5,1.1-2.5,1.1c-0.9,0-1.7-0.3-2.4-0.9
			c-0.7-0.6-1.1-1.5-1.1-2.5c0-1,0.4-1.8,1.1-2.5c0.7-0.7,1.5-1,2.4-1c0.9,0,1.7,0.4,2.5,1.1c0.3,0.4,0.6,0.7,0.8,1.1
			c0.2,0.4,0.3,0.8,0.3,1.3c0,0.4-0.1,0.8-0.2,1.2C1032.6,318.9,1032.3,319.3,1032,319.7z"/>
	</g>
	<g>
		<path fill="#A0A1A7" d="M727.6,502.6l-2.3,1.4l-5.9-11.9l-0.8-1.1l-0.7-0.4L717,491l-1.2,1.1l-5.5,5.5l-1.3,0.9
			c-0.6,0.3-1,0.4-1.3,0.4l13.7,13.7c0.7,0.6,1.2,1.3,1.8,2.1c0.5,0.7,0.9,1.6,1.4,2.7c0.8,1.9,1.3,3.8,1.3,5.6
			c0,3.9-1.4,7.2-4.3,10.1c-2.9,2.9-6.3,4.3-10.2,4.3c-4,0-7.5-1.4-10.4-4.2c-1.4-1.4-2.4-2.9-3.2-4.6c-0.3-0.9-0.6-1.8-0.8-2.6
			c-0.2-0.9-0.3-1.9-0.3-3c0-3.4,1.2-6.4,3.5-9.1c2.3-2.4,5.3-4,8.9-4.8l4.2,4.2h-1.8c-2.5,0-4.8,1-6.8,2.9c-2,1.9-3,4.2-3,6.8
			c0,2.5,0.9,4.7,2.7,6.6c1.8,1.9,4.1,2.8,6.8,2.8c2.5,0,4.7-0.9,6.6-2.8c0.9-0.9,1.5-1.8,2-3c0.2-0.6,0.4-1.1,0.5-1.7
			c0.1-0.6,0.2-1.2,0.2-1.9c0-1.6-0.2-2.7-0.6-3.6c-0.3-0.9-1-1.9-2-3.1l-20.6-20.6l1.2,0.2l1.1,0.1l2-0.1c0.3,0,0.6-0.1,0.9-0.2
			c0.3-0.1,0.7-0.1,1-0.2c0.7-0.2,1.3-0.4,1.9-0.7c0.6-0.3,1.1-0.7,1.5-1.2l5.1-5.1c2.2-2.2,4-3.3,5.6-3.3c1.1,0,2.3,0.4,3.3,1.1
			c0.9,0.7,1.7,1.6,2.4,2.8l5.9,11.7C729.3,501.2,728.6,501.8,727.6,502.6z M710.4,545.4c-0.7,0.7-1.6,1.1-2.5,1.1
			c-0.4,0-0.9-0.1-1.3-0.2c-0.4-0.2-0.7-0.5-1.1-0.8c-0.8-0.6-1.1-1.4-1.1-2.4c0-0.9,0.3-1.7,1-2.5c0.7-0.7,1.5-1,2.5-1
			c1,0,1.8,0.3,2.5,1c0.3,0.4,0.6,0.8,0.8,1.2c0.1,0.2,0.2,0.4,0.2,0.6c0.1,0.2,0.1,0.4,0.1,0.7C711.4,543.8,711,544.6,710.4,545.4z
			 M718.1,545.4c-0.7,0.7-1.6,1.1-2.6,1.1c-0.4,0-0.9-0.1-1.3-0.2c-0.4-0.2-0.7-0.5-1.1-0.8c-0.8-0.6-1.1-1.4-1.1-2.4
			c0-0.9,0.3-1.7,1-2.5c0.7-0.7,1.5-1,2.5-1c1,0,1.8,0.3,2.5,1c0.3,0.4,0.6,0.8,0.8,1.2c0.2,0.4,0.3,0.8,0.3,1.3
			C719,543.9,718.7,544.7,718.1,545.4z M737.8,498.3c-1.4,3.1-3.3,5.7-5.7,7.6c-2.5,2-4.3,3.3-5.6,3.9l-2.1,0.9l-2.6,0.9l-4-4
			c0.7-0.1,1.3-0.2,1.9-0.4c0.6-0.1,1.2-0.3,1.8-0.5c1-0.3,1.8-0.5,2.3-0.7l1.3-0.5c0.4-0.1,0.7-0.3,0.9-0.5l1.1-0.6l2.1-1.5
			c1.7-1.1,3.3-3.2,5-6.2c1.7-3,2.5-6.3,2.5-9.8c0-3.1-1.1-6.2-3.3-9.6c-2.1-3.1-4.2-5-6.3-5.7c0.4-0.1,0.9-0.2,1.5-0.2l1.2,0.1
			c0.1,0,0.3,0.1,0.6,0.1c0.3,0.1,0.5,0.2,0.7,0.3c0.7,0.2,1.7,0.8,3,1.8c1.1,0.8,2.3,2.2,3.7,4.3l1.2-2.3l1.3-2.1v9.5
			C740.3,489.4,739.5,494.5,737.8,498.3z M738.6,523.1c-1.3,0-2.4-0.3-3.2-0.8c-0.8-0.6-1.5-1.4-2.2-2.5l-4.9-9.7l1.1-0.5l1.1-0.7
			l2-1.9l4.9,9.8l0.3,0.4l0.4,0.4c0.2,0.1,0.5,0.3,1.1,0.5h7.8v5.1H738.6z"/>
		<path fill="#A0A1A7" d="M743.7,523.1v-5.1h10.5v-10.6c0-0.6-0.2-1-0.6-1.4c-0.2-0.3-0.6-0.5-1.1-0.6c-0.4,0-0.8,0.1-1.1,0.2
			c-0.2,0-0.5,0.2-1.1,0.4c0-1.2,0.4-2.3,1.3-3.2c0.9-1,1.9-1.5,3-1.5h0.4l2.4-3.6l1.8-2.7v28H743.7z M754.1,490.4
			c-0.7,0.7-1.5,1.1-2.4,1.1c-0.8,0-1.6-0.4-2.4-1.1c-0.8-0.7-1.2-1.5-1.2-2.5c0-0.8,0.3-1.6,1-2.3c0.7-0.7,1.5-1.1,2.5-1.1
			c0.4,0,0.8,0.1,1.2,0.2c0.4,0.1,0.8,0.4,1.2,0.8c0.7,0.7,1.1,1.4,1.1,2.4c0,0.5-0.1,0.9-0.2,1.3
			C754.7,489.6,754.5,490,754.1,490.4z"/>
		<path fill="#A0A1A7" d="M764.2,523.1v-53.8l2.4,3.7l1.7,3.7h0.4c1.1,0,2.1,0.4,3,1.3c0.9,0.9,1.4,2,1.4,3.4l-1.1-0.4
			c-0.3-0.1-0.6-0.2-0.9-0.2c-0.2,0-0.4,0-0.5,0.1c-0.2,0.1-0.4,0.2-0.7,0.5c-0.3,0.4-0.4,0.9-0.4,1.4v35.3h6.2v5.1H764.2z"/>
		<path fill="#A0A1A7" d="M772.2,523.1v-5.1h10.2v-10.6c0-0.5-0.2-1-0.6-1.4c-0.2-0.3-0.6-0.5-1-0.6c-0.4,0-0.9,0.1-1.3,0.2
			l-0.9,0.4c0-1.1,0.5-2.2,1.3-3.3c0.4-0.4,0.9-0.7,1.4-1.1c0.6-0.2,1.1-0.4,1.6-0.4h0.3l4.2-6.3v23h5.4v5.1H772.2z M784.6,533.8
			c-0.2,0.2-0.6,0.5-1.1,0.7c-0.4,0.1-0.8,0.3-1.4,0.3c-0.8,0-1.6-0.3-2.4-0.9c-0.7-0.6-1.1-1.5-1.1-2.5c0-1,0.4-1.8,1.1-2.5
			c0.7-0.7,1.5-1,2.4-1c0.5,0,0.9,0.1,1.3,0.2c0.4,0.1,0.8,0.4,1.2,0.8c0.7,0.7,1.1,1.5,1.1,2.4
			C785.6,532.3,785.3,533.1,784.6,533.8z"/>
		<path fill="#A0A1A7" d="M828,520.6c-2.2,1.7-4.3,2.6-6.2,2.6h-31.1v-5.1h11.5c-1.6-1.8-3.1-4-4.3-6.8c-1.1-2.6-1.9-5.2-2.4-7.9
			l-0.6-3.2h19.6v-1.6c0-0.5-0.1-0.9-0.4-1.3c-0.3-0.2-0.6-0.4-1.1-0.5c-0.3,0-0.6,0-0.7,0.1c-0.1,0-0.3,0.1-0.6,0.2l-0.9,0.4
			c0-1.3,0.4-2.4,1.3-3.3c1-0.9,2-1.3,3.1-1.3h0.3l2.6-4.4l1.6-2v19h-18l0.2,1.2l0.3,0.9l0.5,1.2l1,2c0.8,1.6,2.3,3.3,4.5,4.9
			c2.2,1.7,5.1,2.5,8.6,2.5h13.7L828,520.6z M807.1,494c-0.6,0.7-1.5,1.1-2.4,1.1c-1,0-1.8-0.3-2.5-0.9c-0.7-0.7-1-1.5-1-2.5
			c0-1,0.4-1.8,1-2.5c0.2-0.2,0.3-0.3,0.4-0.4c0.1-0.1,0.3-0.2,0.7-0.4c0.4-0.1,0.8-0.3,1.3-0.3c1,0,1.8,0.4,2.5,1.1
			c0.7,0.7,1.1,1.5,1.1,2.5c0,0.4-0.1,0.8-0.2,1.2C807.8,493.2,807.5,493.6,807.1,494z"/>
		<path fill="#A0A1A7" d="M842.4,480.7c-0.2,0-0.4,0-0.5,0.1c-0.2,0.1-0.4,0.2-0.6,0.5c-0.3,0.4-0.4,0.9-0.4,1.4v41.9
			c0,5.2-0.7,9.1-2,11.6c-1.3,2.5-2.6,4.5-3.9,5.8c-1.3,1.3-2.5,1.9-3.7,1.9l1.2-2.1l0.6-0.8l0.4-0.8l0.3-0.9l0.4-1.1
			c0.3-0.8,0.6-2.2,0.9-4.3c0.1-0.6,0.2-1.2,0.2-1.9c0.1-0.7,0.1-1.4,0.1-2l0.1-5.4v-55.3l2.5,3.8l1.7,3.6h0.4c1.1,0,2.1,0.4,3,1.3
			c0.9,0.9,1.4,2,1.4,3.4C843.8,480.9,843.1,480.7,842.4,480.7z M842.6,465.3c-1,0.1-2.1,0.5-3.4,1.1c-0.5,0.2-1,0.4-1.5,0.6
			c-0.5,0.2-1,0.4-1.5,0.5l-1,0.2l-1,0.1h-1.7l2-2.9l1.2-0.3c-0.7-0.3-1.3-1.1-2-2.3c-0.4-1.1-0.7-2.4-0.7-3.8c1.2,0,2.3-0.3,3.3-1
			l1.3-0.7l0.9-0.3c1,0,2.1,0.5,3.1,1.4l1.1,1.5l-0.7,0.8l-0.9-0.5c-0.7-0.3-1.5-0.4-2.4-0.4c-0.2,0-0.4,0-0.6,0.1l-0.8,0.5
			c-0.3,0.2-0.5,0.5-0.7,1c0,0.3,0.4,0.7,1.1,1.2c0.6,0.4,1.4,0.6,2.3,0.7l2.8-0.6l1.1-0.1l1.9-0.1L842.6,465.3z"/>
	</g>
	<g>
		<path fill="#A0A1A7" d="M549.5,346.8c-0.7,5.1-3,9.1-6.7,12.1c-3.8,2.9-8.5,4.4-14,4.4c-5.9,0-10.6-1.7-14.2-5.1
			c-3.6-3.4-5.5-7.9-5.5-13.5c0-0.5,0-0.9,0-1.4c0-0.5,0.1-1,0.1-1.5c0.1-0.6,0.2-1.1,0.2-1.5c0.1-0.5,0.2-1,0.4-1.6l1-3.6l1.2-3.7
			l1.6-4.6l0.9,2.3l0.1,2.4c0.7-0.7,1.6-1.3,2.5-1.9l1.3-0.7l1.3-0.6l1-0.4l1.1-0.4l1.6-0.3c1.1,0,2.1,0.4,3.1,1.1
			c-1.5,0-3.4,0.6-5.6,1.8c-2.2,1.2-4.2,3-6,5.4c-1.8,2.4-2.7,5.2-2.7,8.3c0,4.5,1.5,8.1,4.6,10.6c3.1,2.6,7,3.8,11.7,3.8
			c4.7,0,8.5-1.3,11.5-4c3-2.6,4.5-5.9,4.5-9.9v-38c0-0.6-0.2-1.1-0.5-1.3c-0.3-0.2-0.7-0.4-1.1-0.5c-0.7,0-1.1,0-1.3,0.1l-0.4,0.1
			l-0.6,0.4c0-0.7,0.1-1.3,0.3-1.8c0.2-0.5,0.5-1,0.9-1.5c0.9-0.9,1.9-1.3,3.1-1.3h0.3l1.8-3.6l2.4-3.9v48.8h4.8v5.1H549.5z"/>
		<path fill="#A0A1A7" d="M556.5,346.8h-3.8v-5.1h4.1L556.5,346.8z M563.3,346.8l0.5-5.1h12v-12.2l-2.7,0.7l-3,1.1
			c-1.4,0.6-2.8,1.5-4.2,2.8c-1.1,1.1-1.9,2.3-2.4,3.7l-0.7,2.8l-0.1,2.1l-0.4,3.9c-0.3,2.2-1.1,4.2-2.4,5.8
			c-0.6,0.7-1.3,1.4-2.1,2.1c-0.7,0.6-1.5,1.3-2.5,2l0.3-0.9l0.6-1.4l0.9-2.7l0.3-1.8c0.1-0.7,0.1-1.7,0.1-2.9l0.2-3.6l0.2-3.2
			c0.6-3.5,1.7-6.2,3.3-7.9c0.5-0.5,0.8-0.8,1.1-1.1c0.3-0.2,0.6-0.6,1.1-1c0.3-0.3,0.8-0.6,1.3-0.9c0.3-0.2,0.6-0.4,0.7-0.5
			l1.9-1.1c0.3-0.1,0.6-0.3,0.9-0.4c0.4-0.2,0.7-0.3,1-0.4l6.3-2l0.6-0.3c0.2,0,0.4-0.2,0.7-0.4l0.6-0.3l0.8-0.6
			c0.4-0.3,0.8-1,1.3-2.1h1.2v25.9H563.3z"/>
		<path fill="#A0A1A7" d="M593.8,289.4c-0.5,0.1-1.1,0.2-1.7,0.4c-0.6,0.2-1.4,0.5-2.3,1c-0.3,0.1-0.8,0.3-1.5,0.5
			c-0.3,0.1-0.6,0.2-0.8,0.3c-0.7,0.2-1.4,0.3-2.1,0.3h-1.6l1.9-3h0.6c0.2,0,0.4,0,0.6-0.1c-0.6-0.3-1.2-1.1-1.9-2.3
			c-0.2-0.6-0.4-1.2-0.5-1.9c-0.1-0.7-0.2-1.3-0.2-1.9c1.1,0,2.2-0.3,3.2-1c1-0.6,1.9-1,2.5-1.1c0.9,0,2,0.5,3.1,1.4l1.1,1.5
			l-0.7,0.8l-0.9-0.5c-0.7-0.3-1.4-0.4-2.4-0.4c-0.2,0-0.5,0-0.7,0.1c-0.2,0.1-0.5,0.3-0.7,0.5c-0.4,0.3-0.7,0.6-0.8,1
			c0,0.3,0.3,0.7,1.1,1.2c0.7,0.4,1.5,0.6,2.4,0.8l2.8-0.6l1.4-0.2l1.6-0.1L593.8,289.4z M610.7,356.1c-1.1,1.4-2.7,2.8-4.8,4.2
			l-5.5,3.1c-2.2-1-4.2-2.1-6-3.2c-1.8-1.1-3.4-2.5-4.7-4.3c-0.5-0.8-1-1.6-1.4-2.6c-0.4-1-0.5-2-0.5-3c0-3.3,1.3-6.2,4-8.6
			c0.2,0.1,0.4,0.3,0.7,0.5l0.9,0.4l0.9,0.5c0.3,0.1,0.7,0.3,1.3,0.4l1.6,0.4c-2.8,1.8-4.2,3.9-4.2,6.3c0,1.7,1,3.3,3.1,4.9l4.3,2.8
			l4.4-2.8c2-1.6,3.1-3.2,3.1-4.9c0-1.7-0.7-3.4-2.2-5l-1.2-0.9c-0.4-0.3-0.8-0.5-1.3-0.7c-0.9-0.3-1.8-0.5-2.8-0.5
			c-3.4,0-6.4-1.2-8.9-3.6c-2.5-2.4-3.7-5.2-3.7-8.6v-24.8c0-0.6-0.2-1.1-0.5-1.3c-0.2-0.2-0.6-0.4-1.1-0.5c-0.6,0-0.9,0-1,0.1
			l-0.3,0.1l-0.8,0.5c0-0.7,0.1-1.2,0.3-1.7c0.2-0.5,0.5-1,1-1.6c0.9-0.9,1.9-1.3,3.1-1.3h0.3l1.7-3.8l2.5-3.7v38.1
			c0,1,0.2,1.8,0.5,2.6c0.3,0.8,0.9,1.6,1.7,2.4c1.5,1.4,3.3,2.1,5.3,2.1c3.3,0,6.2,1.1,8.7,3.4c2.5,2.3,3.8,5.2,3.8,8.8
			c0,0.5,0,1-0.1,1.5c-0.1,0.5-0.2,1-0.4,1.5C612,354.2,611.5,355.1,610.7,356.1z M614.4,304.4c-0.4,0-0.8,0.2-1.1,0.5
			c-0.3,0.3-0.5,0.8-0.5,1.4v24.8c0,1-0.1,1.8-0.2,2.5c-0.2,0.7-0.4,1.5-0.8,2.3c-0.2,0.4-0.3,0.7-0.5,1c-0.2,0.3-0.4,0.6-0.7,1
			c-0.2,0.2-0.4,0.5-0.7,0.9c-0.3,0.4-0.6,0.7-0.9,1l-1-0.7l-1.3-0.7c-0.5-0.3-1-0.5-1.6-0.7l-0.8-0.2l-0.9-0.2
			c0.7-0.3,1.3-0.6,1.7-1c0.5-0.4,0.9-0.9,1.4-1.6c0.9-1.2,1.3-2.4,1.3-3.7V293l2.7,3.8l1.6,3.6c1.2,0,2.3,0.5,3.3,1.3
			c0.9,0.8,1.3,1.9,1.3,3.3C616.1,304.6,615.3,304.4,614.4,304.4z"/>
		<path fill="#A0A1A7" d="M629.3,301.3c-0.2,0-0.4,0-0.5,0.1c-0.2,0.1-0.4,0.2-0.7,0.5c-0.3,0.4-0.4,0.9-0.4,1.4v41.9
			c0,5.2-0.6,9.1-2,11.6c-1.3,2.5-2.6,4.5-3.9,5.7c-1.3,1.3-2.5,1.9-3.7,1.9l1.2-2.1l0.6-0.8l0.4-0.8l0.3-0.9l0.4-1.1
			c0.3-0.8,0.6-2.2,0.9-4.3c0.1-0.6,0.1-1.2,0.2-1.9c0.1-0.7,0.1-1.4,0.1-2l0.1-5.4v-55.3l2.5,3.8l1.7,3.6h0.4c1.1,0,2.1,0.4,3,1.3
			c0.9,0.9,1.4,2,1.4,3.4C630.6,301.6,629.9,301.3,629.3,301.3z"/>
	</g>
	<polyline fill-rule="evenodd" clip-rule="evenodd" fill="#A0A1A7" points="823.2,372.9 884.1,372.9 848,322 884.1,270.9 
		823.2,270.9 	"/>
	<polyline fill-rule="evenodd" clip-rule="evenodd" fill="#A0A1A7" points="721.1,372.9 660.1,372.9 696.3,322 660.1,270.9 
		721.1,270.9 	"/>
	<polyline fill-rule="evenodd" clip-rule="evenodd" fill="#A0A1A7" points="823.1,270.8 823.2,209.8 772.2,246 721.1,209.8 
		721.1,270.8 	"/>
	<polyline fill-rule="evenodd" clip-rule="evenodd" fill="#A0A1A7" points="823.1,372.9 823.2,433.8 772.2,397.6 721.1,433.8 
		721.1,372.9 	"/>
	<polyline fill-rule="evenodd" clip-rule="evenodd" fill="#A0A1A7" points="1089,287.8 1060.2,321.8 1089,355.9 	"/>
	<polyline fill-rule="evenodd" clip-rule="evenodd" fill="#A0A1A7" points="734.9,569.8 770.4,541.1 804.8,569.5 	"/>
	<polyline fill-rule="evenodd" clip-rule="evenodd" fill="#A0A1A7" points="470,286.4 498.2,323.1 469.4,357.2 	"/>
</g>
<g>
	<g>
		<g>
			<g>
				<path fill="#A0A1A7" d="M2446.7,414.1c-5.1,5.8-13.1,8.7-23.9,8.7h-128.1V406h128.1c4.1,0,7.7-1.3,10.7-3.8
					c1.8-2,2.8-4.6,2.8-7.7v-25.4c-3.8,1.1-8.1,2-13,2.9l-8.5,0.6l-9.1,0.4h-33.1c-8.4,0-16.3,2.3-23.7,7.1
					c-7.1,4.4-10.7,7.9-11,10.4v12.2H2321V287.5c0-2-0.5-3.5-1.6-4.6c-1.1-1.1-2.3-1.6-3.7-1.6c-2.7,0-5.1,0.7-7.3,2.2
					c0-4.4,1.5-8.1,4.5-11.1c3-3.1,6.3-4.6,10-4.6h1l8.3-16.2l5.7-8.5v124.9c2.3-2,4.7-3.7,7.4-5.1c2.7-1.4,5.7-2.6,9.2-3.8
					c1.9-0.6,4-1.1,6.3-1.6c0.8-0.2,2.2-0.4,4.4-0.9c2-0.2,4-0.5,6-0.6c2.1-0.2,4.3-0.2,6.9-0.2h33.8c3.9,0,7.1-0.2,9.7-0.5
					c2.5-0.4,4.5-0.8,6-1.1c1.4-0.4,3.1-1,5-1.8c6-2.4,11.2-5.2,15.7-8.4l5.2-4.3v54.8C2453.4,402.3,2451.2,408.9,2446.7,414.1z
					 M2324.4,448.3c-2.6,2.7-5.4,5.1-8.6,7.3c-1.6,1.1-3.2,2.1-4.7,3c-1.5,0.8-3.4,1.6-5.5,2.4l2.9-5l3.6-6.2l3.2-6.4l2.7-9
					c0.3-1.3,0.6-2.6,0.7-3.9c0.2-1.3,0.3-2.7,0.3-4.2h16.4c0,3.6-0.9,7.2-2.7,10.9C2331,440.7,2328.2,444.5,2324.4,448.3z"/>
				<path fill="#A0A1A7" d="M2535.3,463.7c-6.3,8-13.5,13.9-21.6,17.6l-10.1,4.4l-8.6,3.2c-4.8,1.5-9.2,2.2-13.2,2.2l5-3.8l4.5-3.2
					l9.5-5.7l5.4-3.5c1.6-1.2,3.3-2.7,5.1-4.5c3.4-2.8,7.6-7.9,12.5-15.6c4.9-7.6,7.4-18.7,7.4-33.2v-56.5c-7.3,1.5-12.5,3-15.7,4.7
					c-3.3,1.5-6.3,3-9,4.5c-1.8,1.2-4.4,3.4-7.9,6.7c-2.8,2.5-5.1,6.2-6.6,11c-1.6,4.8-2.4,9.5-2.4,13.9h37.8v16.9h-54.9v-13.2
					c0-6.7,1.2-13.9,3.7-21.6c2.5-7.8,6.6-14.3,12.5-19.7c5.8-5.4,13.4-9.7,22.6-13.1l19.4-6.7l4.9-2.3l4.1-2.4l4.1-3.5l4.3-3.8
					v85.2C2547.9,438.3,2543.7,452.3,2535.3,463.7z M2551.7,422.9V406h16.2v16.9H2551.7z"/>
				<path fill="#A0A1A7" d="M2556.2,422.9V406h34.2v-35.4c0-1.8-0.7-3.4-2.1-4.7c-0.7-1-1.8-1.6-3.4-2c-1.4,0-2.9,0.2-4.2,0.7
					l-3,1.5c0-3.8,1.5-7.5,4.5-10.9c1.3-1.3,2.9-2.5,4.7-3.5c1.9-0.8,3.7-1.2,5.5-1.2h1l14-21.1V406h18.1v16.9H2556.2z
					 M2584.5,457.3c-2.7,2.1-5.5,3.2-8.1,3.2c-1.7,0-3.1-0.2-4.3-0.7c-1.1-0.5-2.4-1.4-4-2.7c-2.3-2.1-3.4-4.8-3.4-8
					c0-3.3,1.1-6.2,3.4-8.5c2.8-2.1,5.5-3.2,8.3-3.2c1.5,0,2.9,0.2,4.1,0.7c1.2,0.5,2.5,1.4,3.8,2.7c2.3,2.3,3.5,5.1,3.5,8.3
					C2587.8,451.9,2586.7,454.7,2584.5,457.3z M2610.2,457.3c-2.7,2.1-5.5,3.2-8.1,3.2c-1.7,0-3.1-0.2-4.3-0.7
					c-1.1-0.5-2.5-1.4-4-2.7c-2.2-2.1-3.4-4.8-3.4-8c0-3.3,1.2-6.2,3.4-8.5c2.8-2.1,5.5-3.2,8.3-3.2c1.5,0,2.9,0.2,4.1,0.7
					c1.2,0.5,2.5,1.4,3.8,2.7c2.4,2.3,3.5,5.1,3.5,8.3C2613.4,451.9,2612.3,454.7,2610.2,457.3z"/>
				<path fill="#A0A1A7" d="M2758.5,410.2c-1.1,0.7-2.6,1.7-4.5,2.8c-0.7,0.4-1.8,1-3.3,1.8c-2.4,1.3-5.6,2.7-9.7,4.3
					c-6.8,2.5-14.3,3.7-22.6,3.7h-100.5V406h46.4c-5.2-3.1-10-6.9-14.1-11.4l-5.6-6.3l-4-5.6l-4-7.8l-4.9-11.2
					c-0.7-1.9-1.4-4-2.1-6.5c-0.7-2.5-1.3-5.1-1.7-7.9c-0.4-2.8-0.8-5.9-1-9.3c-0.2-3.5-0.4-7.1-0.4-10.9v-42.3l8.3,10.7l6.4,11.9h1
					c3.8,0,7.2,1.5,10.1,4.4c2.9,2.9,4.4,6.6,4.4,11.1l-2.8-1l-4.4-1c-1.9,0-3.7,0.7-5.2,1.9c-1.5,0.9-2.3,2.6-2.6,5.2v2.3
					c0,23.4,8.9,41.6,26.6,54.4c8.8,6.2,18.4,11,28.9,14.3c10.5,3.3,21.5,4.9,33,4.9h33.9L2758.5,410.2z M2696.3,357.4
					c-2.4,2.3-5.1,3.5-8.3,3.5c-3.1,0-5.8-1.1-8.1-3.1c-2.4-2.1-3.5-4.9-3.5-8.3c0-3.2,1.2-6,3.6-8.3c2.4-2.3,5.1-3.4,8.1-3.4
					c2.8,0,5.6,1.2,8.3,3.7c1.1,1.2,2,2.5,2.5,3.8c0.6,1.3,0.9,2.7,0.9,4.2c0,1.5-0.2,2.8-0.7,4.1
					C2698.5,354.8,2697.6,356.1,2696.3,357.4z"/>
			</g>
			<g>
				<path fill="#A0A1A7" d="M1349.3,354.6l-7.7,4.7l-19.7-39.6l-2.8-3.8l-2.4-1.2l-2.8,1.2l-4,3.5l-18.4,18.5l-4.5,3.2
					c-1.9,1-3.4,1.4-4.2,1.4l45.8,45.8c2.2,1.9,4.1,4.2,5.8,6.9c1.6,2.3,3.2,5.3,4.6,9c2.8,6.4,4.2,12.6,4.2,18.7
					c0,12.9-4.8,24.1-14.3,33.8c-9.6,9.6-20.9,14.5-34.2,14.5c-13.4,0-24.9-4.7-34.6-14.1c-4.6-4.6-8.1-9.8-10.6-15.4
					c-1.1-2.9-2-5.9-2.5-8.8c-0.6-3-0.9-6.3-0.9-9.9c0-11.3,3.9-21.5,11.7-30.4c7.8-8.2,17.7-13.5,29.9-15.9l14,14h-6
					c-8.5,0-16.1,3.2-22.7,9.5c-6.7,6.4-10,14-10,22.8c0,8.3,3.1,15.7,9.2,21.9c6.1,6.3,13.6,9.4,22.5,9.4c8.3,0,15.6-3.1,22.1-9.2
					c2.9-2.8,5.1-6.2,6.8-10c0.8-1.9,1.4-3.8,1.8-5.7c0.4-2,0.6-4.1,0.6-6.4c0-5.2-0.7-9.2-2.1-11.9c-1-3-3.2-6.4-6.7-10.2
					l-68.7-68.8l4.1,0.6l3.5,0.3l6.7-0.4c1-0.2,2-0.4,3-0.5c1.1-0.2,2.2-0.5,3.4-0.8c2.2-0.6,4.3-1.5,6.2-2.5c1.9-1,3.6-2.4,5.1-4.1
					l17.1-17.1c7.3-7.3,13.5-10.9,18.7-10.9c3.8,0,7.5,1.2,11.2,3.7c3,2.3,5.6,5.5,7.9,9.5l19.7,39.1
					C1354.9,349.9,1352.8,351.8,1349.3,354.6z M1291.8,497.4c-2.3,2.3-5.2,3.5-8.5,3.5c-1.5,0-2.9-0.2-4.2-0.7
					c-1.2-0.6-2.4-1.5-3.6-2.8c-2.5-2-3.8-4.7-3.8-7.9c0-2.9,1.1-5.7,3.3-8.3c2.3-2.3,5.1-3.4,8.4-3.4c3.2,0,6,1.1,8.3,3.4
					c1.2,1.2,2,2.5,2.6,4c0.3,0.7,0.6,1.4,0.7,2c0.2,0.6,0.3,1.4,0.3,2.3C1295.1,492.1,1294,494.8,1291.8,497.4z M1317.5,497.4
					c-2.4,2.3-5.2,3.5-8.5,3.5c-1.5,0-2.9-0.2-4.3-0.7c-1.2-0.6-2.4-1.5-3.6-2.8c-2.5-2-3.8-4.7-3.8-7.9c0-2.9,1.1-5.7,3.3-8.3
					c2.3-2.3,5.1-3.4,8.4-3.4c3.2,0,6,1.1,8.3,3.4c1.1,1.4,2,2.7,2.6,4c0.6,1.3,0.8,2.7,0.8,4.3
					C1320.6,492.4,1319.6,495,1317.5,497.4z M1383.5,340.1c-4.5,10.4-10.9,18.9-19.1,25.5c-8.2,6.6-14.5,10.9-18.8,13l-7.1,3l-8.6,3
					l-13.4-13.5c2.2-0.4,4.4-0.8,6.5-1.3c2.1-0.5,4.1-1,6.1-1.5c3.4-0.9,5.9-1.7,7.5-2.3l4.4-1.8c1.3-0.5,2.3-1,2.9-1.6l3.5-2.1
					l7.2-5.1c5.5-3.8,11.1-10.8,16.6-20.8c5.6-10.1,8.3-21,8.3-32.9c0-10.2-3.7-20.9-11.2-32c-7.1-10.5-14-16.8-20.9-19.1
					c1.5-0.5,3.1-0.7,5-0.7l4.1,0.4c0.5,0.1,1.1,0.2,2,0.5c0.8,0.3,1.6,0.5,2.2,0.9c2.2,0.7,5.5,2.7,10,5.9
					c3.6,2.7,7.7,7.5,12.5,14.5l4.1-7.8l4.3-7.2v31.8C1391.6,310.3,1388.9,327.3,1383.5,340.1z M1385.9,423c-4.4,0-8-0.9-10.8-2.8
					c-2.7-1.9-5.1-4.7-7.3-8.4l-16.3-32.3l3.5-1.8l3.7-2.4l6.7-6.2l16.4,32.8l0.9,1.3l1.5,1.4c0.5,0.4,1.8,0.9,3.6,1.6h26.1V423
					H1385.9z"/>
				<path fill="#A0A1A7" d="M1402.9,423v-16.9h35v-35.4c0-1.9-0.6-3.4-1.9-4.7c-0.8-1-2-1.6-3.5-1.9c-1.5,0-2.7,0.3-3.7,0.7
					c-0.5,0.1-1.7,0.6-3.5,1.5c0-4,1.5-7.6,4.3-10.8c2.9-3.2,6.3-4.9,10.1-4.9h1.2l7.9-12.2l6.1-9V423H1402.9z M1437.7,313.7
					c-2.3,2.3-5.1,3.5-8.1,3.5c-2.7,0-5.3-1.2-7.9-3.5c-2.6-2.4-3.9-5.1-3.9-8.3c0-2.7,1.1-5.3,3.3-7.8c2.2-2.4,5-3.7,8.5-3.7
					c1.5,0,2.8,0.2,4.1,0.7c1.3,0.5,2.6,1.4,4,2.8c2.4,2.2,3.5,4.8,3.5,7.9c0,1.7-0.3,3.2-0.8,4.3
					C1439.9,311,1439,312.3,1437.7,313.7z"/>
				<path fill="#A0A1A7" d="M1471.6,423V243.3l8.1,12.3l5.7,12.4h1.2c3.6,0,6.9,1.5,9.9,4.4c3,3,4.6,6.7,4.6,11.2l-3.8-1.5
					c-1-0.5-2-0.7-3.2-0.7c-0.7,0-1.2,0.1-1.8,0.4c-0.6,0.2-1.3,0.8-2.2,1.6c-1,1.5-1.5,3-1.5,4.7v118h20.7V423H1471.6z"/>
				<path fill="#A0A1A7" d="M1498.2,423v-16.9h34.1v-35.4c0-1.8-0.7-3.4-2.1-4.7c-0.7-1-1.9-1.6-3.4-1.9c-1.5,0-2.9,0.3-4.2,0.7
					l-3.1,1.5c0-3.8,1.5-7.5,4.5-10.9c1.3-1.3,2.9-2.5,4.7-3.5c1.9-0.8,3.7-1.2,5.5-1.2h1l14-21.1v76.7h18.1V423H1498.2z
					 M1539.5,458.6c-0.8,0.8-2,1.6-3.6,2.4c-1.2,0.5-2.8,0.8-4.6,1.1c-2.8,0-5.5-1-8-3.1c-2.5-2.1-3.7-4.9-3.7-8.4
					c0-3.3,1.2-6.1,3.5-8.3c2.3-2.2,5.1-3.3,8.1-3.3c1.5,0,3,0.2,4.3,0.7c1.3,0.5,2.6,1.4,4,2.8c2.4,2.4,3.5,5.1,3.5,8.2
					C1543,453.6,1541.9,456.2,1539.5,458.6z"/>
				<path fill="#A0A1A7" d="M1684.4,414.5c-7.4,5.7-14.3,8.5-20.6,8.5h-103.8v-16.9h38.5c-5.4-5.9-10.2-13.5-14.4-22.7
					c-3.6-8.6-6.3-17.4-8.1-26.4l-2.1-10.7h65.5v-5.2c0-1.5-0.5-3-1.5-4.5c-0.9-0.7-2.2-1.3-3.8-1.7c-1.1,0-1.9,0.1-2.3,0.2
					c-0.4,0-1.1,0.2-2,0.7l-3,1.2c0-4.2,1.4-7.9,4.3-10.9c3.2-3,6.6-4.5,10.2-4.5h1l8.7-14.6l5.5-6.8v63.3h-59.9l0.7,4l0.9,3.2
					l1.7,4l3.4,6.7c2.7,5.4,7.7,10.9,15.1,16.4c7.4,5.5,16.9,8.3,28.7,8.3h45.6L1684.4,414.5z M1614.8,325.9
					c-2.2,2.4-4.9,3.5-8.1,3.5c-3.2,0-6.1-1.1-8.4-3.2c-2.3-2.3-3.4-5-3.4-8.3c0-3.4,1.2-6.2,3.5-8.3c0.7-0.6,1.2-1,1.5-1.2
					c0.3-0.2,1-0.7,2.2-1.2c1.3-0.5,2.7-0.9,4.3-1.1c3.4,0,6.2,1.2,8.2,3.5c2.4,2.3,3.5,5.1,3.5,8.3c0,1.4-0.2,2.7-0.7,3.9
					C1616.9,323.2,1616.1,324.5,1614.8,325.9z"/>
				<path fill="#A0A1A7" d="M1732.6,281.4c-0.7,0-1.3,0.1-1.8,0.4c-0.6,0.2-1.3,0.8-2.2,1.6c-1,1.5-1.5,3-1.5,4.7V428
					c0,17.3-2.2,30.3-6.6,38.8c-4.4,8.5-8.7,14.9-13,19.2c-4.2,4.3-8.4,6.4-12.3,6.4l4.1-6.9l1.9-2.8l1.4-2.7l1.1-2.9l1.5-3.8
					c1-2.7,1.9-7.4,2.9-14.2c0.3-1.9,0.5-4,0.8-6.4c0.3-2.4,0.4-4.6,0.4-6.6l0.5-18.1V243.3l8.3,12.8l5.7,11.9h1.2
					c3.6,0,6.9,1.5,9.9,4.4c3,3,4.5,6.7,4.5,11.2C1737.1,282.1,1734.8,281.4,1732.6,281.4z M1733.3,230.1c-3.2,0.5-7.1,1.8-11.4,3.8
					c-1.6,0.7-3.3,1.4-4.9,2.1c-1.7,0.6-3.4,1.3-5.1,1.8l-3.3,0.6l-3.4,0.4h-5.6l6.6-9.8l4-0.9c-2.3-1.1-4.5-3.7-6.5-7.6
					c-1.5-3.8-2.2-8.1-2.2-12.8c4,0,7.6-1.1,10.9-3.4l4.5-2.3l3.1-1c3.5,0,6.9,1.6,10.2,4.7l3.8,5l-2.4,2.6l-3-1.6
					c-2.2-1-4.8-1.5-7.9-1.5c-0.6,0-1.3,0.2-2.1,0.5l-2.8,1.7c-1,0.7-1.8,1.7-2.4,3.3c0,0.9,1.2,2.2,3.7,4c2.1,1.2,4.6,2,7.7,2.4
					l9.5-2l3.7-0.5l6.3-0.5L1733.3,230.1z"/>
			</g>
			<g>
				<path fill="#A0A1A7" d="M1948.7,423.7c-2.4,17-9.9,30.4-22.5,40.3c-12.6,9.8-28.2,14.8-46.8,14.8c-19.5,0-35.4-5.6-47.5-16.9
					c-12.1-11.3-18.2-26.3-18.2-45.1c0-1.5,0-3.1,0.1-4.7c0.1-1.6,0.2-3.4,0.5-5.1c0.2-1.8,0.5-3.5,0.8-5.1c0.3-1.5,0.7-3.4,1.3-5.5
					l3.3-11.9l4-12.5l5.5-15.2l3,7.8l0.2,7.9c2.4-2.2,5.2-4.3,8.4-6.2l4.4-2.4l4.4-2.1l3.4-1.5l3.8-1.3l5.5-1c3.5,0,7,1.3,10.2,3.8
					c-5.1,0-11.3,2-18.6,5.8c-7.3,3.9-13.9,9.9-19.9,17.9c-6,8.1-9,17.3-9,27.8c0,15.1,5.1,26.9,15.4,35.4
					c10.2,8.5,23.3,12.8,39.2,12.8c15.6,0,28.3-4.4,38.4-13.2c10-8.8,15.1-19.8,15.1-33V288.3c0-2.1-0.5-3.6-1.5-4.4
					c-1-0.8-2.2-1.4-3.7-1.8c-2.3,0-3.8,0.1-4.2,0.3l-1.2,0.5l-1.9,1.5c0-2.3,0.3-4.3,1-6c0.6-1.7,1.7-3.4,3.1-4.9
					c3-3,6.4-4.5,10.2-4.5h1.1l6-11.9l8.1-13v162.9h15.9v16.9H1948.7z"/>
				<path fill="#A0A1A7" d="M1972.2,423.7h-12.6v-16.9h13.8L1972.2,423.7z M1995.1,423.7l1.8-16.9h40V366l-9.1,2.2l-10,3.8
					c-4.8,1.9-9.5,4.9-14,9.2c-3.6,3.7-6.3,7.8-7.9,12.4l-2.3,9.2l-0.5,6.9l-1.4,13c-1,7.5-3.7,13.9-8,19.2
					c-1.9,2.3-4.2,4.6-6.9,7.1c-2.2,2.1-5,4.4-8.5,6.8l1-3l2.1-4.6l2.9-9l1-6.1c0.2-2.4,0.4-5.7,0.4-9.8l0.7-12.2l0.7-10.8
					c1.9-11.7,5.6-20.5,11.2-26.4c1.5-1.5,2.7-2.7,3.6-3.5c0.9-0.8,2.1-1.9,3.8-3.3c1.1-0.9,2.6-1.9,4.2-3c1.1-0.7,1.9-1.3,2.4-1.6
					l6.4-3.5c0.9-0.4,1.9-0.9,3.2-1.4c1.2-0.5,2.4-1,3.4-1.3l21.1-6.7l2-0.9c0.6-0.2,1.4-0.7,2.4-1.5l2.1-1l2.7-1.9
					c1.4-1.1,2.8-3.5,4.3-7h4v86.4H1995.1z"/>
				<path fill="#A0A1A7" d="M2096.9,232.1c-1.7,0.2-3.5,0.7-5.5,1.4c-2,0.7-4.6,1.8-7.8,3.3c-1.1,0.5-2.7,1.1-5,1.8
					c-1,0.3-1.9,0.6-2.8,1c-2.4,0.6-4.7,1-6.9,1h-5.5l6.4-10h2.1c0.7,0,1.4-0.2,1.9-0.5c-1.9-1.1-4.1-3.7-6.4-7.8
					c-0.7-1.9-1.3-4-1.8-6.2c-0.5-2.2-0.7-4.4-0.7-6.4c3.7,0,7.3-1.1,10.7-3.2c3.4-2.1,6.2-3.3,8.2-3.6c3.2,0,6.6,1.6,10.2,4.7
					l3.7,5l-2.4,2.6l-3-1.6c-2.2-1-4.8-1.4-7.9-1.4c-0.8,0-1.6,0.1-2.2,0.4c-0.7,0.3-1.5,0.9-2.5,1.7c-1.5,1-2.3,2.1-2.5,3.4
					c0,1.1,1.2,2.4,3.5,4c2.3,1.3,5,2.1,8,2.6l9.4-2.1l4.7-0.6l5.2-0.4L2096.9,232.1z M2153.1,454.6c-3.6,4.6-9,9.3-16.2,14
					l-18.5,10.5c-7.4-3.5-14-7-20-10.6c-5.9-3.6-11.2-8.4-15.7-14.3c-1.8-2.5-3.3-5.4-4.5-8.7c-1.2-3.3-1.8-6.6-1.8-10
					c0-10.9,4.4-20.5,13.2-28.8c0.7,0.3,1.5,0.9,2.2,1.7l3.1,1.5l2.9,1.8c1,0.5,2.4,1,4.4,1.5l5.3,1.2c-9.2,6-13.9,13-13.9,21.1
					c0,5.5,3.5,11,10.5,16.4l14.3,9.5l14.7-9.5c6.8-5.3,10.2-10.7,10.2-16.4c0-5.8-2.5-11.4-7.4-16.6l-4-2.9c-1.3-1-2.7-1.7-4.3-2.3
					c-2.9-1.1-6-1.7-9.2-1.7c-11.4,0-21.3-4-29.6-11.9c-8.3-7.9-12.5-17.5-12.5-28.7v-82.9c0-2.1-0.6-3.6-1.7-4.5
					c-0.7-0.8-1.9-1.4-3.5-1.7c-1.9,0-3,0.1-3.4,0.3l-1,0.4l-2.8,1.6c0-2.2,0.3-4.1,0.9-5.7c0.6-1.6,1.7-3.4,3.3-5.2
					c3-3,6.4-4.5,10.2-4.5h1l5.7-12.6l8.5-12.3v127.2c0,3.2,0.6,6.1,1.7,8.7c1.1,2.5,2.9,5.2,5.5,7.9c5.1,4.6,11,6.9,17.6,6.9
					c10.9,0,20.7,3.8,29.1,11.3c8.5,7.5,12.7,17.3,12.7,29.3c0,1.8-0.1,3.5-0.4,5.1c-0.2,1.6-0.7,3.2-1.3,4.9
					C2157.6,448.4,2155.7,451.5,2153.1,454.6z M2165.7,282.1c-1.5,0-2.7,0.5-3.8,1.5c-1.1,1-1.6,2.6-1.6,4.7v82.9
					c0,3.2-0.3,6.1-0.8,8.5c-0.5,2.4-1.4,5-2.6,7.7c-0.6,1.3-1.1,2.5-1.7,3.5c-0.6,1-1.3,2.1-2.2,3.2c-0.6,0.7-1.4,1.7-2.4,2.9
					c-1,1.2-2.1,2.3-3.1,3.3l-3.3-2.2l-4.4-2.2c-1.6-0.9-3.4-1.7-5.2-2.3l-2.8-0.6l-3-0.6c2.3-0.9,4.2-2,5.8-3.3
					c1.6-1.3,3.2-3.1,4.6-5.4c2.8-4,4.3-8.1,4.3-12.4V244l9,12.8l5.2,12.1c4,0,7.7,1.5,10.9,4.5c3,2.7,4.5,6.4,4.5,10.9
					C2171.1,282.9,2168.7,282.1,2165.7,282.1z"/>
				<path fill="#A0A1A7" d="M2215.1,271.9c-0.6,0-1.2,0.1-1.8,0.4c-0.6,0.3-1.3,0.8-2.2,1.6c-1,1.5-1.5,3-1.5,4.7v139.9
					c0,17.3-2.2,30.3-6.5,38.8c-4.4,8.5-8.7,14.9-13,19.2c-4.2,4.3-8.4,6.4-12.3,6.4l4.1-6.9l1.8-2.8l1.5-2.7l1.1-2.9l1.5-3.8
					c1-2.7,1.9-7.4,2.9-14.2c0.2-1.9,0.5-4,0.8-6.4c0.3-2.4,0.4-4.6,0.4-6.6l0.5-18.1V233.8l8.3,12.8l5.7,11.9h1.2
					c3.6,0,6.9,1.5,9.9,4.4c3,3,4.6,6.7,4.6,11.2C2219.6,272.6,2217.3,271.9,2215.1,271.9z"/>
			</g>
		</g>
	</g>
</g>
</svg>
